<svg width="235" height="371" viewBox="0 0 235 371" fill="none" xmlns="http://www.w3.org/2000/svg">
<path d="M119.735 156.096C119.684 156.037 119.616 155.961 119.532 155.874C119.292 155.628 118.933 155.307 118.468 155.018C117.576 154.465 116.344 154.05 114.744 154.44C104.693 158.606 99.6127 163.306 93.5543 168.91C93.261 169.181 92.9654 169.455 92.6669 169.73L90.1373 172.065L89.4285 168.865C89.1155 167.452 88.7254 165.46 88.3174 163.376C88.2485 163.024 88.179 162.669 88.1093 162.314C87.6263 159.854 87.131 157.374 86.7011 155.543C86.01 153.118 85.3738 150.647 84.7395 148.183C83.1806 142.128 81.633 136.117 79.3085 130.938C78.4226 128.965 77.4275 127.572 76.1491 125.809C75.1583 124.887 74.1511 124.531 73.3166 124.552C72.5075 124.572 71.5975 124.949 70.7114 126.043C69.2581 127.838 68.3543 129.377 67.026 131.64C66.7153 132.169 66.3814 132.738 66.0118 133.358C64.69 135.579 63.2113 138.109 61.6833 140.724C61.0311 141.84 60.3698 142.971 59.7079 144.101C57.5029 147.863 55.2896 151.601 53.5054 154.458L53.4713 154.512L53.434 154.565C52.9976 155.181 52.5666 155.796 52.1483 156.394C51.0882 157.909 50.1088 159.308 49.3247 160.301C48.8196 160.94 48.1893 161.686 47.5356 162.125C47.2496 162.317 46.4493 162.802 45.4841 162.553C44.3971 162.273 44.0463 161.339 43.9404 160.916C42.9164 156.82 42.2974 153.16 41.6156 147.872C40.5404 140.339 39.5801 132.365 38.6397 124.557C38.588 124.128 38.5364 123.699 38.4848 123.271C37.4928 115.038 36.5175 107.031 35.4427 99.9051C35.3303 99.1627 35.2311 98.5348 35.1251 97.9341C34.0481 95.455 33.0061 93.3077 31.9126 91.3854L31.8942 91.353L31.877 91.3198C31.8288 91.2264 31.7862 91.1534 31.7503 91.097C31.6721 91.1307 31.5774 91.1757 31.4625 91.2353C31.1459 91.3994 30.7938 91.6109 30.3226 91.8939C30.2647 91.9287 30.2051 91.9645 30.1434 92.0015L30.1434 92.0015C30.0082 92.0826 29.5687 92.5341 29.2748 94.0909C29.0053 95.518 28.9579 97.3577 29.0532 99.3491C29.2007 102.431 29.6637 105.528 29.9714 107.586C30.0623 108.194 30.1396 108.711 30.1913 109.111C30.1914 109.111 30.1915 109.112 30.1916 109.113L28.2137 109.51L119.735 156.096ZM119.735 156.096C121.521 160.384 123.095 164.423 124.758 168.694C124.859 168.954 124.961 169.214 125.063 169.475C126.867 174.107 128.793 179.029 131.208 184.808C132.042 186.942 132.702 188.882 133.35 190.789L133.464 191.124C134.148 193.135 134.831 195.122 135.686 197.189C135.891 197.683 136.079 198.152 136.249 198.574C136.476 199.141 136.669 199.623 136.822 199.966C136.954 200.263 137.133 200.642 137.367 200.953C137.512 201.147 138.267 202.113 139.61 201.782C140.183 201.641 140.571 201.311 140.776 201.102C140.986 200.889 141.135 200.668 141.23 200.514C141.419 200.211 141.589 199.85 141.731 199.538C141.823 199.336 141.918 199.123 142.02 198.895C142.269 198.335 142.559 197.682 142.957 196.868L142.982 196.818L143.003 196.766C145.604 190.675 148.238 184.631 150.891 178.545C154.857 169.447 158.864 160.254 162.859 150.668L162.862 150.66C163.507 149.095 164.134 147.699 164.709 146.418C164.765 146.293 164.821 146.169 164.876 146.046C165.46 144.744 166.002 143.522 166.412 142.412C167.506 140.365 167.611 140.196 168.72 138.413C169.04 137.898 169.443 137.249 169.978 136.382C171.879 134.03 172.833 133.674 173.301 133.643C173.557 133.626 173.916 133.685 174.477 133.971C175.053 134.265 175.72 134.735 176.581 135.412C178.982 137.298 180.541 138.725 182.154 140.216L182.362 140.409C183.923 141.852 185.572 143.376 188.059 145.394L188.065 145.399C188.6 145.829 189.466 146.458 190.529 146.608C191.119 146.691 191.789 146.63 192.463 146.308C193.121 145.994 193.637 145.5 194.034 144.949L194.042 144.938L194.049 144.927C198.264 138.934 200.667 135.448 203.565 131.243C205.793 128.01 208.314 124.352 212.177 118.803C214.183 115.926 216.734 112.57 218.673 110.628L218.719 110.582L218.739 110.559C218.754 110.552 218.783 110.539 218.831 110.524C218.962 110.483 219.163 110.455 219.407 110.47C219.65 110.484 219.866 110.536 220.016 110.596C220.048 110.608 220.072 110.62 220.09 110.629C220.767 111.614 220.697 112.554 220.37 113.732C220.284 114.04 220.187 114.342 220.079 114.677L220.066 114.715C219.96 115.046 219.836 115.43 219.739 115.806C219.59 116.389 219.403 117.307 219.672 118.233C219.674 118.324 219.677 118.404 219.679 118.473C219.681 118.507 219.682 118.542 219.684 118.577C219.686 118.614 219.689 118.652 219.692 118.689C219.695 118.724 219.699 118.772 219.707 118.827C219.71 118.855 219.716 118.892 219.724 118.935C219.731 118.975 219.745 119.041 219.767 119.121C219.779 119.162 219.796 119.217 219.821 119.282C219.845 119.343 219.884 119.436 219.946 119.543C219.978 119.598 220.02 119.666 220.076 119.739C220.131 119.811 220.207 119.899 220.308 119.99C220.504 120.165 220.869 120.409 221.404 120.449C221.52 120.458 221.636 120.456 221.75 120.444C222.149 120.655 222.596 120.867 223.039 121.068C221.191 122.106 219.392 123.162 217.695 124.439C214.869 126.566 212.262 129.323 209.579 133.767C207.98 135.967 205.202 140.574 202.237 145.492C201.677 146.421 201.11 147.361 200.543 148.298C197.764 152.893 194.983 157.416 192.835 160.53C192.563 160.174 192.266 159.802 191.951 159.421C190.369 157.504 188.144 155.109 185.882 152.804C183.616 150.496 181.278 148.244 179.457 146.615C178.552 145.805 177.744 145.121 177.122 144.656C176.825 144.434 176.5 144.209 176.195 144.052C176.061 143.983 175.796 143.855 175.464 143.796C175.271 143.762 174.072 143.587 173.275 144.721L173.215 144.807L173.163 144.898C167.993 153.978 165.367 159.947 162.822 166.34C162.248 167.782 161.681 169.24 161.09 170.757C159.072 175.939 156.786 181.811 153.069 190.083L153.045 190.137L153.024 190.191C152.804 190.762 152.516 191.582 152.165 192.58C150.823 196.405 148.558 202.857 145.614 208.055C143.73 211.381 141.818 213.714 140.064 214.641C139.273 215.059 138.559 215.168 137.834 214.991C137.096 214.811 136.16 214.287 135.067 213.085C134.266 211.459 133.556 210.048 132.893 208.732C130.554 204.084 128.807 200.614 125.764 193.01C124.372 188.467 122.471 183.91 120.683 179.682C120.577 179.433 120.472 179.185 120.368 178.938C118.671 174.931 117.123 171.274 116.15 168.087L116.133 168.032L116.114 167.979C115.666 166.777 115.39 165.894 115.205 165.257C115.155 165.085 115.105 164.902 115.055 164.723C114.953 164.355 114.856 164.004 114.777 163.79L114.773 163.777C114.72 163.634 114.535 163.125 114.063 162.755C113.758 162.515 113.368 162.357 112.925 162.336C112.52 162.316 112.189 162.417 111.993 162.494C111.688 162.612 111.413 162.796 111.328 162.852C111.321 162.857 111.316 162.86 111.312 162.863C111.294 162.874 111.278 162.885 111.262 162.896C111.154 162.966 111.068 163.024 110.956 163.09C108.426 164.592 102.653 168.796 98.0223 173.427C96.7431 174.706 95.3095 176.442 93.9745 178.058C93.6466 178.455 93.3247 178.845 93.0124 179.219C92.1941 180.199 91.4307 181.088 90.7409 181.81C90.0231 182.56 89.5058 183 89.1821 183.194C88.3522 183.693 86.7933 183.748 85.6218 182.413C85.0514 181.558 84.4685 180.124 83.8978 178.174C83.3231 176.21 82.8053 173.885 82.3191 171.425C81.9555 169.585 81.6061 167.645 81.2641 165.746C80.711 162.674 80.177 159.709 79.6332 157.447C79.4334 156.616 79.1785 155.275 78.8658 153.63C78.7622 153.085 78.6523 152.507 78.5359 151.903C78.0778 149.524 77.5319 146.814 76.9206 144.453C76.615 143.273 76.2854 142.15 75.9324 141.184C75.5912 140.25 75.1818 139.331 74.6748 138.649C74.2725 138.109 73.1798 136.907 71.4902 137.461C70.7553 137.702 70.2387 138.202 69.9019 138.632C69.5882 139.032 69.3328 139.496 69.1168 139.975L119.735 156.096ZM111.032 165.434C111.075 165.531 111.206 165.773 111.472 165.982C111.729 166.184 112.067 166.324 112.453 166.342C112.543 166.346 112.628 166.343 112.706 166.336C112.929 166.316 113.1 166.258 113.193 166.222C113.365 166.155 113.479 166.072 113.35 166.155L111.567 167.288C111.493 167.048 111.427 166.828 111.37 166.629C111.287 166.345 111.22 166.099 111.166 165.904C111.153 165.857 111.141 165.813 111.13 165.773C111.075 165.574 111.047 165.48 111.032 165.434ZM111.032 165.434C111.029 165.426 111.026 165.419 111.024 165.413C111.011 165.376 111.011 165.389 111.032 165.434ZM219.709 117.47C219.665 117.685 219.656 117.884 219.67 118.065L219.709 117.47Z" fill="white" stroke="#2A3240" stroke-width="4"/>
<path fill-rule="evenodd" clip-rule="evenodd" d="M184.663 73.2105C185.677 75.3454 186.717 82.4572 186.567 86.227C186.454 89.0828 186.051 90.7277 184.641 94.0966C182.407 99.4366 180.112 101.798 174.657 104.373C164.265 109.279 149.148 107.939 131.175 100.519C125.076 98.0016 124.017 97.2461 124.555 95.7996C125.094 94.3513 126.646 94.5859 132.001 96.9259C139.143 100.047 152.48 103.485 158.083 103.65C172.044 104.062 180.347 98.5817 181.763 88.0197C182.282 84.1468 181.996 79.9023 180.935 75.7128C180.179 72.7323 180.164 72.8218 181.56 72.0999C182.994 71.3584 183.945 71.6986 184.663 73.2095L184.663 73.2105Z" fill="#FFD369" fill-opacity="0.975806" stroke="#FFD369" stroke-width="0.593226" stroke-linecap="round" stroke-linejoin="round"/>
<path fill-rule="evenodd" clip-rule="evenodd" d="M95.8656 23.8046C96.462 24.3786 96.3951 25.2631 95.518 28.4095C92.3221 39.8695 91.6698 55.3932 93.8663 67.7163C97.3733 87.3907 105.466 103.34 116.988 113.285C120.197 116.055 128.182 120.689 129.547 120.573C129.913 120.543 130.839 119.772 131.606 118.863C134.539 115.38 141.52 113.912 146.68 115.692C154.459 118.376 155.741 125.986 149.149 130.349C147.704 131.306 145.279 132.342 143.749 132.657C137.687 133.906 130.726 130.884 129.573 126.502C129.082 124.636 128.761 124.367 125.51 123.094C110.49 117.212 97.8119 100.676 91.3048 78.4821C89.6401 72.8044 87.6405 56.0105 87.8493 49.4601C88.1213 40.9274 89.7845 30.3283 91.5865 25.6461C92.438 23.4335 94.5402 22.5289 95.8658 23.8045L95.8656 23.8046ZM138.324 118.783C137.814 118.829 136.601 119.662 135.629 120.632C131.595 124.657 135.387 129.957 141.906 129.405C147.547 128.927 150.665 123.599 147.182 120.387C145.654 118.978 141.89 117.87 140.313 118.365C139.729 118.546 138.835 118.736 138.324 118.783L138.324 118.783Z" fill="#FFD369" stroke="#FFD369" stroke-width="0.593226" stroke-linecap="round" stroke-linejoin="round"/>
<path fill-rule="evenodd" clip-rule="evenodd" d="M81.0231 31.0079C82.2259 31.9277 80.9071 33.1006 75.2979 36.1003C62.82 42.7732 55.6743 50.9567 55.5878 58.6737C55.4931 67.0582 63.6769 74.8428 77.8716 79.8717C83.2818 81.7882 84.6557 82.6373 84.2778 83.8294C83.7846 85.3851 81.4108 85.0644 75.1764 82.6C63.4095 77.9487 57.3098 73.4619 53.3795 66.5671C50.5413 61.5881 50.1879 58.3627 51.9019 53.077C54.299 45.6837 61.3825 38.8693 73.1887 32.5977C78.0879 29.9952 79.3609 29.7368 81.0231 31.0079V31.0079Z" fill="#FFD369" stroke="#FFD369" stroke-width="0.593226" stroke-linecap="round" stroke-linejoin="round"/>
<path fill-rule="evenodd" clip-rule="evenodd" d="M152.452 4.78963C165.244 11.7479 175.31 24.6048 181.063 41.3305C182.721 46.1496 182.382 47.3475 179.722 46.0727C178.629 45.5484 177.991 44.4355 176.422 40.3116C168.506 19.5069 155.299 6.22468 140.857 4.5447C134.867 3.84686 130.013 4.8471 123.622 8.09227C120.38 9.73777 117.397 10.9635 116.991 10.8163C115.618 10.3182 114.702 8.43722 115.43 7.61419C117.858 4.87138 126.874 1.30411 132.885 0.707988C138.882 0.113266 146.949 1.79593 152.452 4.78972L152.452 4.78963Z" fill="#FFD369" fill-opacity="0.987903" stroke="#FFD369" stroke-width="0.593226" stroke-linecap="round" stroke-linejoin="round"/>
<path fill-rule="evenodd" clip-rule="evenodd" d="M76.0664 4.34501C102.611 9.16316 132.994 22.8507 155.229 40.0084C163.245 46.1933 168.806 51.4492 168.674 52.715C168.535 54.0381 166.123 54.4294 164.862 53.333C164.358 52.8944 161.675 50.5244 158.9 48.0661C139.87 31.2091 112.889 17.2553 84.9588 9.82719C79.394 8.3471 75.9501 7.78603 67.2394 6.9399C56.1752 5.86526 50.4127 6.00413 45.431 7.46565L43.4443 8.0485L44.1153 9.73428C44.9809 11.9103 44.2271 15.3594 42.4637 17.291C41.732 18.0924 39.7384 19.2454 38.0333 19.8532C26.0591 24.122 14.3467 12.2927 23.6002 5.27624C24.6542 4.47711 26.5305 3.52522 27.7699 3.16086C30.5336 2.34852 35.7912 2.78558 38.5477 4.05681C40.4235 4.92199 40.8572 4.92885 44.0665 4.1455C51.7472 2.26895 65.0851 2.35247 76.0665 4.34569L76.0664 4.34501ZM29.6851 6.44825C25.2551 7.74791 23.797 11.4457 26.4803 14.5759C30.4039 19.1529 39.0811 17.7363 39.6352 12.4284C40.0713 8.25068 34.6492 4.99189 29.6851 6.44825Z" fill="#FFD369" fill-opacity="0.967742"/>
<path fill-rule="evenodd" clip-rule="evenodd" d="M221.321 7.98014C224.383 8.87794 226.281 10.1492 228.021 12.467C230.831 16.2106 230.017 20.2983 225.88 23.2143C224.601 24.1164 223.311 24.8318 223.014 24.804C222.718 24.7762 222.346 25.9887 222.187 27.4981C220.558 43.0707 196.919 61.6852 163.569 73.6565C148.09 79.2131 133.724 82.6126 117.866 84.472C110.452 85.3412 108.428 85.2592 107.577 84.0553C106.56 82.6175 108.122 82.003 114.435 81.358C123.868 80.3943 133.328 78.6642 142.483 76.3382C180.919 66.573 213.991 46.306 217.288 28.1633L217.683 25.9897L217.729 25.7247L215.318 25.2896C209.005 24.1503 204.594 19.2743 205.647 14.5988C206.326 11.5802 208.233 9.6637 211.768 8.44648C215.276 7.23845 218.288 7.0915 221.319 7.98026L221.321 7.98014ZM214.643 11.2952C212.039 12.0166 210.538 13.5742 210.306 15.7956C209.751 21.1008 217.97 24.109 222.765 20.3563C225.114 18.5183 225.536 16.4758 224.032 14.2245C222.078 11.2997 218.573 10.2061 214.643 11.2942L214.643 11.2952Z" fill="#FFD369" fill-opacity="0.967742" stroke="#FFD369" stroke-width="0.593226" stroke-linecap="round" stroke-linejoin="round"/>
<path fill-rule="evenodd" clip-rule="evenodd" d="M128.088 51.5004C129.517 51.8276 131.001 52.9937 131.441 54.1353C131.724 54.8686 131.619 55.8728 131.19 56.5379C130.779 57.1765 129.622 58.0236 128.781 58.3016C128.215 58.4886 127.903 58.4952 126.355 58.3499C124.717 58.1963 124.525 58.1538 123.883 57.7895C122.009 56.7276 121.254 54.82 122.153 53.4167C123.155 51.8537 125.842 50.9862 128.087 51.5003L128.088 51.5004Z" fill="#2A3240" stroke="#FFD369" stroke-width="2" stroke-linecap="round" stroke-linejoin="round"/>
<path d="M42.023 226.463L41.9541 226.399L41.8815 226.34C17.6522 206.561 3.29415 177.273 3.24362 146.89C3.20128 121.43 11.9458 102.081 26.9025 88.2928C26.9525 88.5986 27.0009 88.8903 27.0475 89.1706C27.2428 90.3467 27.4045 91.3211 27.5041 92.2814C27.7214 94.3767 27.6243 96.2463 26.5411 98.9129C16.5778 110.996 11.1138 126.781 11.1466 146.484C11.1943 175.203 24.7134 202.219 47.6799 220.727C55.954 228.614 60.9034 239.259 63.8311 249.694C66.7634 260.144 67.6058 270.163 67.8225 276.487L67.922 279.389L70.8257 279.384L163.945 279.229L166.848 279.224L166.938 276.322C166.957 275.713 166.975 275.084 166.993 274.437C167.373 261.033 167.975 239.741 182.686 224.969L182.714 224.941L182.741 224.912C182.856 224.79 183.147 224.479 183.524 224.076C183.933 223.638 184.444 223.09 184.943 222.558C185.43 222.039 185.911 221.527 186.295 221.123C186.487 220.92 186.65 220.749 186.776 220.619C186.837 220.556 186.88 220.512 186.909 220.482C209.827 201.88 222.807 174.815 222.76 146.132C222.738 132.994 219.659 121.612 214.129 111.919C216.306 110.806 218.501 109.213 220.102 106.531C220.139 106.507 220.176 106.483 220.213 106.458C227.371 117.576 231.482 130.874 231.508 146.51C231.557 176.101 217.719 204.678 193.932 224.947L193.881 224.991L193.833 225.036L192.571 226.211L192.57 226.212C182.559 235.547 178.34 249.905 176.539 261.499C175.628 267.364 175.313 272.676 175.225 276.546C175.14 280.305 175.275 283.04 175.275 282.866C175.277 284.056 174.736 285.197 174.131 285.762C173.386 286.457 172.417 286.92 171.118 286.923L63.6766 287.101C62.7107 287.103 61.3438 286.583 60.661 285.95C60.1085 285.439 59.8672 285.031 59.7353 284.685C59.6149 284.37 59.5348 283.972 59.5126 283.388C59.5411 283.217 59.562 283.042 59.5783 282.885C59.6169 282.511 59.6501 282.024 59.6758 281.453C59.7275 280.302 59.7532 278.698 59.7127 276.754C59.6317 272.866 59.2846 267.547 58.3267 261.682C56.4326 250.085 52.0557 235.755 42.023 226.463Z" fill="white" stroke="#2A3240" stroke-width="6"/>
<path d="M70.4399 301.029L163.977 300.874C172.463 300.86 179.184 307.338 179.197 314.794C179.209 322.123 172.644 328.378 163.553 328.766L70.4863 328.921C62.0005 328.935 55.2793 322.456 55.2669 315C55.2545 307.545 61.9542 301.044 70.4399 301.029ZM70.4718 320.216L164.009 320.06C165.445 320.058 166.853 319.545 167.9 318.47C168.95 317.394 169.452 315.948 169.449 314.419C169.443 310.72 166.244 308.792 163.569 308.796L70.4531 308.951C68.9479 308.953 67.435 309.38 66.2784 310.459C65.0983 311.559 64.5892 313.058 64.5918 314.593C64.5979 318.293 67.7966 320.22 70.4718 320.216Z" fill="white" stroke="#2A3240" stroke-width="5"/>
<path d="M84.4093 339.552L150.138 339.442C158.665 339.428 165.345 345.552 165.358 353.363C165.37 360.818 158.671 367.319 150.185 367.333L84.4557 367.443C75.97 367.457 69.2488 360.978 69.2364 353.522C69.224 346.067 75.9236 339.566 84.4093 339.552ZM84.4413 358.738L150.17 358.629C152.846 358.624 156.038 356.686 156.032 352.987C156.025 349.287 152.827 347.359 150.152 347.364L84.4225 347.473C82.9173 347.476 81.4044 347.902 80.2478 348.981C79.0677 350.081 78.5586 351.581 78.5612 353.115C78.5673 356.815 81.766 358.743 84.4413 358.738Z" fill="white" stroke="#2A3240" stroke-width="5"/>
</svg>
