<svg width="406" height="366" viewBox="0 0 406 366" fill="none" xmlns="http://www.w3.org/2000/svg">
<path d="M80.6198 56.2479C82.0748 57.3209 83.7658 57.8329 85.4398 57.8329C87.9348 57.8329 90.3898 56.6869 91.9918 54.5249C94.6578 50.9159 93.8858 45.8269 90.2768 43.1609L33.8888 1.59091C30.2798 -1.08309 25.1908 -0.303094 22.5248 3.30591C19.8588 6.92291 20.6228 12.0119 24.2398 14.6779L80.6198 56.2479Z" fill="#2A3240"/>
<path d="M76.1695 191.583L17.2375 235.038C13.6285 237.704 12.8565 242.793 15.5225 246.402C17.1155 248.564 19.5785 249.71 22.0745 249.71C23.7485 249.71 25.4395 249.198 26.8945 248.125L85.8265 204.67C89.4355 202.004 90.2075 196.915 87.5415 193.306C84.8585 189.689 79.7785 188.925 76.1695 191.583Z" fill="#2A3240"/>
<path d="M317.238 40.4699C313.629 43.1359 312.857 48.2249 315.523 51.8339C317.116 53.9959 319.578 55.1419 322.074 55.1419C323.748 55.1419 325.439 54.6219 326.894 53.5569L379.64 14.6699C383.249 12.0039 384.021 6.91491 381.355 3.30591C378.689 -0.303092 373.609 -1.08309 369.992 1.59091L317.238 40.4699Z" fill="#2A3240"/>
<path d="M383.746 260.613C386.412 257.004 385.64 251.915 382.031 249.249L326.886 208.59C323.269 205.924 318.189 206.688 315.523 210.305C312.857 213.914 313.629 219.003 317.238 221.669L372.381 262.328C373.836 263.401 375.528 263.913 377.202 263.913C379.69 263.921 382.153 262.775 383.746 260.613Z" fill="#2A3240"/>
<path d="M237.925 322H167.075C156.629 322 148 326.976 148 333C148 339.024 156.629 344 167.075 344H237.925C248.371 344 257 339.024 257 333C257 326.714 248.371 322 237.925 322ZM237.925 334.833H167.075C165.258 334.833 163.442 334.048 163.442 332.738C163.442 331.429 164.804 330.643 167.075 330.643H237.925C239.742 330.643 241.558 331.429 241.558 332.738C241.558 334.048 239.742 334.833 237.925 334.833Z" fill="#2A3240"/>
<path d="M205.464 28.2002C144.264 28.2002 94.264 78.2002 94.264 139.4C94.264 171.4 108.264 202.2 131.864 223C149.464 240.6 147.864 278.2 147.464 278.6C147.464 280.6 147.864 282.2 149.464 283.8C150.664 285 152.664 285.8 154.264 285.8H205.264H256.264C258.264 285.8 259.864 285 261.064 283.8C262.264 282.6 263.064 280.6 263.064 278.6C263.064 278.2 261.064 240.6 278.664 223C279.064 222.6 279.464 222.2 279.864 221.8C303.064 200.6 316.664 170.6 316.664 139.4C316.664 78.2002 266.664 28.2002 205.464 28.2002ZM269.464 212.6C269.064 213 268.264 213.8 268.264 214.2C252.664 231 249.835 272.6 249.435 285.8H160.435C160.035 272.6 157.864 229.8 141.064 212.6C119.864 194.2 107.464 167.4 107.464 139C107.464 85.0002 151.064 41.4002 205.064 41.4002C259.064 41.4002 302.664 85.0002 302.664 139C302.664 167.4 290.664 194.2 269.464 212.6Z" fill="#2A3240"/>
<path d="M230.475 348H176.525C168.571 348 162 352.071 162 357C162 361.929 168.571 366 176.525 366H230.475C238.429 366 245 361.929 245 357C245 351.857 238.429 348 230.475 348ZM230.475 358.5H176.525C175.142 358.5 173.758 357.857 173.758 356.786C173.758 355.714 174.796 355.071 176.525 355.071H230.475C231.858 355.071 233.242 355.714 233.242 356.786C233.242 357.857 231.858 358.5 230.475 358.5Z" fill="#2A3240"/>
<path d="M248.19 289H159.68C150.51 289 142.935 295.56 142.935 303.5C142.935 311.44 150.51 318 159.68 318H247.791C257.36 317.655 264.935 311.44 264.935 303.5C264.935 295.56 257.36 289 248.19 289ZM248.19 305.917H159.68C158.085 305.917 156.491 304.881 156.491 303.155C156.491 301.429 157.687 300.393 159.68 300.393H247.791C249.386 300.393 250.981 301.429 250.981 303.155C250.981 304.881 249.785 305.917 248.19 305.917Z" fill="#2A3240"/>
<path d="M55.2614 115.06L9.25973 115.098C5.68431 115.227 2.39666 118.388 2.52488 121.963C2.30197 125.73 5.46288 129.018 9.38942 128.698L55.3911 128.659C56.6361 128.436 57.53 128.403 58.5834 127.829C60.6901 126.679 62.2221 124.476 62.126 121.795C61.9978 118.219 58.8369 114.932 55.2614 115.06Z" fill="#2A3240"/>
<path d="M403.285 131.901C403.463 128.328 400.22 125.121 396.647 124.943L350.302 124.066C346.728 123.888 343.522 127.131 343.344 130.705C343.21 133.385 344.711 135.609 346.802 136.787C347.847 137.377 349.089 137.618 349.982 137.662L396.327 138.539C399.901 138.718 403.107 135.474 403.285 131.901Z" fill="#2A3240"/>
</svg>
